<svg width="204" height="204" viewBox="0 0 204 204" fill="none" xmlns="http://www.w3.org/2000/svg">
  <path d="M187.639 69.9021C193.092 67.8586 199.226 70.6143 200.696 76.2484C206.238 97.4863 204.802 120.051 196.436 140.546C186.737 164.31 168.435 183.543 145.182 194.409C121.928 205.275 95.4333 206.975 70.9821 199.169C46.5309 191.364 25.9211 174.628 13.2642 152.299C0.607328 129.97 -3.16618 103.69 2.6965 78.7016C8.55918 53.7134 23.627 31.854 44.8941 17.4842C66.1612 3.11439 92.0641 -2.7094 117.435 1.17464C139.317 4.52444 159.415 14.8827 174.791 30.5466C178.869 34.702 178.083 41.3805 173.529 45.009C168.975 48.6374 162.385 47.8272 158.195 43.7832C146.212 32.2155 130.877 24.5642 114.244 22.0179C94.1181 18.9368 73.5701 23.5566 56.6994 34.9558C39.8288 46.355 27.8758 63.6955 23.2251 83.518C18.5744 103.34 21.5679 124.188 31.6082 141.901C41.6486 159.614 57.9979 172.89 77.3943 179.082C96.7908 185.274 117.809 183.925 136.255 175.305C154.701 166.686 169.219 151.429 176.914 132.578C183.273 116.999 184.584 99.9117 180.815 83.688C179.497 78.0164 182.187 71.9457 187.639 69.9021Z" fill="url(#paint0_linear)"/>
  <!-- Yellow shadow -->
  <path d="M190 73C195.5 71 202 74 203 80C209 102 207 125 198 145C188 168 170 187 147 198C124 209 98 210 73 202C48 194 27 177 14 154C1 132 -2 105 4 80C10 55 25 33 46 18C67 3 93 -2 118 2C140 5 160 15 176 31C180 35 179 42 174 46C169 49 162 48 158 44C146 33 131 25 114 22C94 19 73 24 57 35C40 47 28 64 23 84C19 104 22 125 32 143C42 161 58 174 77 180C97 186 118 185 137 176C155 167 170 152 177 133C183 117 184 100 181 84C179 78 182 72 188 70Z" fill="yellow" opacity="0.3"/>

  <!-- Video editing icons -->
  <rect x="65" y="90" width="20" height="20" fill="white" transform="rotate(45 65 90)"/> <!-- Clapperboard -->
  <circle cx="100" cy="105" r="10" fill="white"/> <!-- Film Reel -->
  <polygon points="130,95 150,105 130,115" fill="white"/> <!-- Play Button -->

  <defs>
    <linearGradient id="paint0_linear" x1="-12.4348" y1="91.2145" x2="228.124" y2="92.098" gradientUnits="userSpaceOnUse">
      <stop stop-color="#FFD700"/>
      <stop offset="1" stop-color="#FFC107"/>
    </linearGradient>
  </defs>
</svg>
